<?xml version="1.0" encoding="UTF-8" standalone="no"?>
<!-- Created with Inkscape (http://www.inkscape.org/) -->

<svg
   version="1.1"
   id="svg1"
   width="1122.5601"
   height="793.59998"
   viewBox="0 0 1122.5601 793.59998"
   xmlns="http://www.w3.org/2000/svg"
   xmlns:svg="http://www.w3.org/2000/svg">
  <defs
     id="defs1" />
  <g
     id="g1">
    <path
       style="fill:#000000"
       d="m 137.81247,466.76611 c -0.88,-0.1745 -2.68,-0.67239 -4,-1.10641 -1.32,-0.43403 -3.984,-1.58947 -5.92,-2.56765 -1.936,-0.97819 -5.32,-2.98406 -7.52,-4.4575 -2.2,-1.47344 -5.57051,-3.90716 -7.49001,-5.40828 -1.9195,-1.50111 -5.51152,-4.49918 -7.98226,-6.66237 -2.47075,-2.1632 -7.391374,-6.81309 -10.934731,-10.33309 -3.543357,-3.52 -8.231338,-8.34762 -10.417736,-10.72805 -2.186398,-2.38044 -5.616325,-6.19644 -7.622061,-8.48 -2.005736,-2.28357 -6.051182,-7.03194 -8.98988,-10.55194 -2.938698,-3.52 -7.214185,-8.776 -9.501082,-11.68 -2.286898,-2.904 -5.990753,-7.71184 -8.23079,-10.68408 -2.240037,-2.97225 -5.982006,-8.08425 -8.315486,-11.36 -2.333481,-3.27576 -5.690998,-8.12279 -7.461149,-10.77118 -1.770152,-2.64838 -4.513079,-6.96838 -6.095396,-9.6 -1.582316,-2.63161 -3.454966,-5.93674 -4.161445,-7.34474 -0.706478,-1.408 -1.461449,-3.1507 -1.677713,-3.87266 -0.327405,-1.09299 -0.308446,-1.60423 0.113296,-3.05497 0.278576,-0.95827 1.062371,-2.59958 1.741766,-3.64734 0.679395,-1.04777 1.999168,-2.73833 2.932829,-3.7568 0.933661,-1.01847 2.866277,-2.78818 4.294703,-3.93268 1.428425,-1.1445 3.63085,-2.79671 4.894278,-3.67158 l 2.297141,-1.59067 1.964923,1.15161 c 1.080708,0.63339 3.070995,1.65913 4.42286,2.27943 1.351864,0.62031 4.401935,1.88575 6.777935,2.8121 2.376001,0.92635 7.416001,2.70225 11.200001,3.94645 3.784,1.24419 9.976001,3.14175 13.760001,4.21678 3.784,1.07504 10.912,2.94731 15.840001,4.16061 4.928,1.2133 12.344005,2.928 16.480005,3.81044 4.136,0.88243 10.616,2.17527 14.4,2.87296 3.784,0.69769 9.76,1.70448 13.28,2.2373 3.52,0.53282 8.92,1.25674 12,1.60872 3.08,0.35198 7.95889,0.81006 10.84198,1.01794 2.99354,0.21586 7.9348,0.30365 11.52,0.20469 3.63465,-0.10033 7.48334,-0.39312 9.14067,-0.69538 1.57445,-0.28714 3.95045,-0.89613 5.28,-1.35331 1.32954,-0.45717 3.01277,-1.23903 3.74051,-1.73746 0.72774,-0.49843 1.7085,-1.36419 2.17947,-1.9239 0.47096,-0.55971 1.29654,-1.88977 1.83462,-2.9557 0.53808,-1.06592 1.46154,-3.18926 2.05215,-4.71852 0.5906,-1.52927 1.44358,-4.05569 1.8955,-5.61427 0.45193,-1.55859 1.17769,-4.40995 1.61281,-6.33637 0.43512,-1.92641 1.14334,-5.59841 1.57382,-8.16 0.43048,-2.56158 1.07129,-6.96142 1.42403,-9.77742 0.35273,-2.816 0.85757,-7.496 1.12186,-10.4 0.26428,-2.904 0.62311,-7.584 0.79738,-10.4 0.17427,-2.816 0.41115,-6.884 0.52639,-9.04 l 0.20953,-3.92 h 1.41725 c 0.77949,0 2.81558,0.15309 4.52464,0.34021 1.70907,0.18711 4.17833,0.55851 5.48725,0.82531 1.30892,0.26681 3.32078,0.86178 4.47079,1.32216 1.30302,0.52163 2.59845,1.34458 3.43777,2.1839 0.99499,0.99498 1.51593,1.89427 1.99407,3.4423 0.35597,1.15251 0.81686,3.65036 1.0242,5.55079 0.23531,2.15687 0.30026,5.36101 0.17282,8.52654 -0.11228,2.78917 -0.42477,7.18117 -0.69441,9.76 -0.26965,2.57884 -0.85274,7.13679 -1.29576,10.12879 -0.44303,2.992 -1.51986,9.04 -2.39297,13.44 -0.87311,4.4 -2.45107,11.49754 -3.50659,15.77232 -1.05552,4.27478 -2.85888,11.04278 -4.00747,15.04 -1.1486,3.99722 -3.43752,11.29968 -5.0865,16.22768 -1.64899,4.928 -4.01311,11.58921 -5.25361,14.8027 -1.24049,3.21348 -3.27828,8.25348 -4.5284,11.2 -1.25012,2.94651 -4.12678,9.1013 -6.39258,13.6773 -2.2658,4.576 -5.58619,10.76799 -7.37866,13.75999 -1.79247,2.992 -4.35048,7.01656 -5.68446,8.94347 -1.33398,1.9269 -3.57024,4.9509 -4.96946,6.72 -1.39922,1.76909 -4.43343,5.08853 -6.74269,7.37653 -2.30926,2.288 -5.4918,5.07419 -7.07231,6.19153 -1.5805,1.11734 -4.45764,2.80744 -6.39364,3.75578 -1.936,0.94834 -4.672,2.0219 -6.08,2.38568 -1.47624,0.38141 -3.98245,0.71607 -5.92,0.79051 -1.848,0.071 -4.08,-0.0137 -4.96,-0.1882 z M 761.6525,416.23082 v -11.52 h 1.92 1.92 v 1.28 c 0,0.704 0.10936,1.28 0.24302,1.28 0.13367,0 0.41176,-0.27019 0.61799,-0.60041 0.20623,-0.33022 1.13314,-0.97822 2.05981,-1.44 1.15513,-0.57563 2.19327,-0.83861 3.30201,-0.83647 1.03004,0.002 2.19806,0.27774 3.21717,0.75953 0.88,0.41602 1.98828,1.17061 2.46284,1.67687 0.47457,0.50626 1.18849,1.64048 1.58651,2.52048 0.5579,1.23352 0.72365,2.18636 0.72365,4.16 0,1.97363 -0.16575,2.92647 -0.72365,4.16 -0.39802,0.88 -1.11194,2.01421 -1.58651,2.52047 -0.47456,0.50626 -1.58284,1.26085 -2.46284,1.67687 -0.94087,0.4448 -2.19322,0.75696 -3.04,0.75774 -0.792,7.4e-4 -1.95341,-0.14128 -2.58091,-0.3156 -0.6275,-0.17431 -1.7435,-0.83273 -2.48,-1.46315 l -1.33909,-1.14621 v 4.02494 4.02493 h -1.92 -1.92 z m 11.79656,2.01645 c 0.46389,-0.33766 1.16744,-1.248 1.56344,-2.02299 0.40227,-0.78726 0.7169,-1.97931 0.71297,-2.70127 -0.004,-0.71071 -0.27377,-1.87951 -0.5998,-2.59735 -0.32602,-0.71783 -0.98547,-1.61405 -1.46543,-1.99159 -0.47997,-0.37754 -1.37595,-0.78085 -1.99107,-0.89625 -0.61512,-0.1154 -1.66434,-0.0462 -2.3316,0.15367 -0.66725,0.19991 -1.64587,0.80603 -2.17469,1.34692 -0.52882,0.5409 -1.14541,1.64033 -1.3702,2.44319 -0.32174,1.14915 -0.32773,1.76251 -0.0281,2.88265 0.20931,0.78259 0.62973,1.76683 0.93426,2.18721 0.30454,0.42037 1.1297,1.06367 1.8337,1.42955 0.92068,0.4785 1.67203,0.62524 2.67656,0.52271 0.7681,-0.0784 1.7761,-0.41879 2.24,-0.75645 z m -126.19657,3.93592 c -0.704,-0.22264 -1.784,-0.66301 -2.4,-0.97859 -0.616,-0.31557 -1.29668,-0.71465 -1.51262,-0.88684 -0.29883,-0.23828 -0.16363,-0.64591 0.56595,-1.70632 l 0.95859,-1.39325 1.11036,0.75351 c 0.6107,0.41444 1.84029,0.92862 2.73242,1.14264 0.89213,0.21402 2.06806,0.29992 2.61318,0.1909 0.54512,-0.10902 1.18485,-0.359 1.42163,-0.55551 0.23677,-0.1965 0.43049,-0.76795 0.43049,-1.26988 0,-0.67456 -0.22953,-1.02845 -0.88,-1.35674 -0.484,-0.24428 -1.888,-0.76416 -3.12,-1.1553 -1.232,-0.39114 -2.69267,-0.98925 -3.24593,-1.32912 -0.55326,-0.33988 -1.23726,-1.10546 -1.52,-1.70128 -0.28274,-0.59582 -0.5117,-1.63755 -0.5088,-2.31496 0.003,-0.67884 0.32606,-1.79344 0.72,-2.48334 0.42218,-0.73936 1.23867,-1.52526 1.99473,-1.92 0.98942,-0.51658 1.86116,-0.66754 3.84,-0.66495 2.10738,0.003 2.88781,0.15634 4.41405,0.86873 l 1.85405,0.86538 -0.46966,0.89127 c -0.25831,0.4902 -0.66154,1.14716 -0.89607,1.45991 -0.40671,0.54237 -0.48895,0.53842 -1.7805,-0.0856 -0.74474,-0.35982 -2.00003,-0.74276 -2.78953,-0.85097 -1.05568,-0.1447 -1.64933,-0.0566 -2.24389,0.33296 -0.4857,0.31825 -0.80845,0.83051 -0.80845,1.28316 0,0.41439 0.19752,0.91736 0.43893,1.11772 0.24141,0.20035 1.48616,0.72046 2.76613,1.1558 1.27996,0.43535 2.95364,1.15866 3.71929,1.60736 0.76565,0.4487 1.60889,1.23506 1.87387,1.74748 0.26498,0.51241 0.48178,1.52055 0.48178,2.2403 0,0.71975 -0.29625,1.88936 -0.65835,2.59912 -0.50119,0.98242 -1.055,1.47515 -2.32,2.06412 -1.20126,0.5593 -2.19361,0.76859 -3.58165,0.75537 -1.056,-0.01 -2.496,-0.20044 -3.2,-0.42309 z m 48.16001,0.14838 c -0.44,-0.13432 -1.39653,-0.54898 -2.12562,-0.92145 -0.72909,-0.37248 -1.85041,-1.29033 -2.49182,-2.03968 -0.67001,-0.78275 -1.38212,-2.10515 -1.67366,-3.10803 -0.32554,-1.11983 -0.44885,-2.39194 -0.34396,-3.54861 0.0914,-1.00839 0.52491,-2.51625 0.98354,-3.42132 0.45103,-0.89007 1.27836,-2.00394 1.83851,-2.47528 0.56016,-0.47133 1.61124,-1.17236 2.33574,-1.55784 1.05745,-0.56263 1.85375,-0.70101 4.03727,-0.70158 2.09287,-5.5e-4 3.0586,0.15518 4.1886,0.67543 0.80773,0.37188 1.97007,1.17761 2.58296,1.79051 0.6129,0.61289 1.42803,1.78165 1.8114,2.59724 0.51736,1.10064 0.69623,2.0818 0.69391,3.80637 -0.002,1.76151 -0.1847,2.71342 -0.75386,3.93568 -0.42496,0.91258 -1.41593,2.19772 -2.28361,2.96148 -0.91524,0.80563 -2.18213,1.5421 -3.14422,1.82781 -0.88624,0.26318 -2.34121,0.46614 -3.23326,0.45101 -0.89206,-0.0151 -1.98192,-0.13741 -2.42192,-0.27174 z m 4.99054,-3.83 c 0.77376,-0.3514 1.60031,-1.06403 2.01799,-1.73985 0.3891,-0.62956 0.79014,-1.65428 0.89122,-2.27715 0.10108,-0.62286 0.002,-1.78097 -0.2197,-2.57357 -0.26482,-0.94584 -0.82247,-1.81961 -1.62267,-2.54255 -0.67056,-0.60581 -1.73179,-1.19763 -2.35829,-1.31517 -0.6265,-0.11753 -1.65471,-0.11696 -2.2849,0.001 -0.63019,0.11823 -1.65262,0.67942 -2.27207,1.24711 -0.77158,0.7071 -1.25205,1.52753 -1.52568,2.60519 -0.27162,1.06973 -0.30674,1.98549 -0.10978,2.86209 0.15929,0.70898 0.63133,1.73705 1.04896,2.28459 0.41764,0.54755 1.23747,1.23116 1.82186,1.51913 0.58438,0.28798 1.56652,0.52371 2.18252,0.52385 0.616,1.4e-4 1.70974,-0.26757 2.43054,-0.59493 z m 25.24946,3.69818 c -0.88,-0.22966 -2.32,-0.7975 -3.2,-1.26186 -0.88,-0.46437 -1.92213,-1.10143 -2.31583,-1.41569 l -0.71583,-0.57138 1.31608,-1.53797 1.31608,-1.53796 0.67975,0.62833 c 0.37386,0.34558 1.26142,0.9284 1.97236,1.29515 0.71094,0.36675 2.08445,0.82584 3.05226,1.0202 1.29059,0.25919 2.11434,0.25788 3.09023,-0.005 0.74339,-0.20017 1.62059,-0.72697 1.98774,-1.19372 0.36144,-0.4595 0.65716,-1.15661 0.65716,-1.54913 0,-0.39253 -0.28965,-1.08192 -0.64366,-1.53198 -0.41698,-0.5301 -1.40309,-1.05377 -2.8,-1.48695 -1.18599,-0.36776 -3.15575,-0.98679 -4.37724,-1.37561 -1.47338,-0.46901 -2.62003,-1.08704 -3.40675,-1.83621 -0.75198,-0.71609 -1.32617,-1.65119 -1.56936,-2.55581 -0.21093,-0.78461 -0.29407,-1.98582 -0.18477,-2.66937 0.1093,-0.68354 0.47966,-1.79346 0.82301,-2.46649 0.34335,-0.67303 1.06997,-1.54105 1.6147,-1.92893 0.54473,-0.38788 1.65088,-0.90401 2.4581,-1.14695 0.80723,-0.24294 2.20654,-0.4417 3.10959,-0.4417 0.90305,0 2.50017,0.22348 3.54915,0.49664 1.04897,0.27315 2.51923,0.85522 3.26723,1.29349 0.748,0.43826 1.36,0.94483 1.36,1.1257 0,0.18087 -0.43769,0.96501 -0.97265,1.74254 l -0.97264,1.41369 -1.22932,-0.77604 c -0.67613,-0.42682 -2.05058,-1.01478 -3.05434,-1.30658 -1.15036,-0.33442 -2.24688,-0.45141 -2.96618,-0.31646 -0.62764,0.11774 -1.5515,0.62441 -2.05302,1.12593 -0.50152,0.50152 -0.91185,1.2204 -0.91185,1.59751 0,0.37711 0.14827,0.96269 0.32948,1.3013 0.18122,0.33861 0.73226,0.82393 1.22453,1.07849 0.49227,0.25456 2.23835,0.84053 3.88019,1.30215 1.64184,0.46163 3.51643,1.11035 4.16577,1.44162 0.64935,0.33127 1.62526,1.10872 2.16869,1.72766 0.63974,0.72862 1.06336,1.62736 1.20161,2.54934 0.11745,0.78319 0.11307,1.90527 -0.01,2.4935 -0.1228,0.58823 -0.55838,1.65276 -0.96795,2.36562 -0.49772,0.86628 -1.29384,1.595 -2.40067,2.19741 -1.34374,0.73136 -2.14775,0.92315 -4.26395,1.01714 -1.50837,0.067 -3.28257,-0.0602 -4.20796,-0.30172 z m 19.2,-0.0225 c -0.528,-0.23568 -1.34684,-0.84204 -1.81964,-1.34747 -0.47281,-0.50544 -1.01281,-1.32435 -1.2,-1.81981 -0.20096,-0.53186 -0.34036,-3.64472 -0.34036,-7.6 v -6.69916 h 1.92 1.92 v 5.45027 c 0,3.97794 0.12245,5.74334 0.45327,6.53511 0.2493,0.59666 0.82592,1.329 1.28138,1.62743 0.45545,0.29843 1.41523,0.53449 2.13283,0.52459 0.7176,-0.01 1.66501,-0.25407 2.10535,-0.5426 0.44035,-0.28852 1.0046,-1.01276 1.2539,-1.60942 0.33082,-0.79177 0.45327,-2.55717 0.45327,-6.53511 v -5.45027 h 1.92 1.92 v 8.8 8.8 h -1.92 -1.92 v -1.32316 -1.32315 l -0.64125,0.81521 c -0.35268,0.44836 -1.26215,1.11578 -2.02103,1.48315 -0.84727,0.41016 -1.98918,0.66311 -2.95875,0.65542 -0.86844,-0.007 -2.01097,-0.20535 -2.53897,-0.44103 z m 43.58486,-0.008 c -0.66833,-0.2384 -1.78344,-0.80953 -2.47803,-1.26919 -0.69459,-0.45965 -1.61913,-1.40006 -2.05453,-2.08978 -0.4354,-0.68972 -0.95937,-1.92016 -1.16437,-2.7343 -0.20501,-0.81414 -0.29868,-2.40283 -0.20817,-3.53042 0.11732,-1.4616 0.43746,-2.53599 1.11513,-3.74246 0.52281,-0.93077 1.55148,-2.15454 2.28592,-2.71949 0.73445,-0.56496 1.87172,-1.17616 2.52727,-1.35822 0.65556,-0.18206 1.85027,-0.33183 2.65492,-0.33281 0.80464,-9.8e-4 2.12077,0.22234 2.92473,0.49628 0.80395,0.27393 1.97922,1.01555 2.61171,1.64804 0.63249,0.63249 1.4607,1.79183 1.84046,2.57631 0.41214,0.85136 0.75409,2.31545 0.84828,3.63196 l 0.15782,2.20563 h -6.443 c -4.46847,0 -6.443,0.10776 -6.443,0.35163 0,0.19341 0.23133,0.83914 0.51407,1.43496 0.28274,0.59582 1.03366,1.40444 1.66872,1.79693 0.80538,0.49776 1.65616,0.71362 2.81257,0.71362 1.29355,0 2.00479,-0.21563 3.23622,-0.98113 l 1.5783,-0.98113 1.15856,1.06175 1.15856,1.06174 -1.32952,1.13802 c -0.73124,0.62591 -2.04595,1.35078 -2.92158,1.61081 -0.87563,0.26004 -2.32192,0.46647 -3.21398,0.45875 -0.89206,-0.008 -2.16873,-0.2091 -2.83706,-0.4475 z m 6.81514,-10.53113 c 0,-0.41397 -0.3259,-1.24197 -0.72422,-1.84 -0.39832,-0.59803 -1.25431,-1.34735 -1.90219,-1.66517 -0.83078,-0.40754 -1.51412,-0.51478 -2.31856,-0.36386 -0.62733,0.11769 -1.51679,0.50989 -1.97659,0.87157 -0.4598,0.36167 -1.03454,1.13279 -1.27722,1.71359 -0.24267,0.58079 -0.44122,1.27661 -0.44122,1.54627 0,0.41616 0.65308,0.49028 4.32,0.49028 h 4.32 z m 35.84,10.69343 c -0.44,-0.13432 -1.39652,-0.54898 -2.12561,-0.92145 -0.72909,-0.37248 -1.85041,-1.29033 -2.49182,-2.03968 -0.67001,-0.78275 -1.38212,-2.10515 -1.67366,-3.10803 -0.32555,-1.11983 -0.44885,-2.39194 -0.34397,-3.54861 0.0914,-1.00839 0.52491,-2.51625 0.98355,-3.42132 0.45103,-0.89007 1.27836,-2.00394 1.83851,-2.47528 0.56015,-0.47133 1.61123,-1.17236 2.33573,-1.55784 1.05746,-0.56263 1.85376,-0.70101 4.03727,-0.70158 2.09287,-5.5e-4 3.05861,0.15518 4.18861,0.67543 0.80773,0.37188 1.97006,1.17761 2.58296,1.79051 0.6129,0.61289 1.42803,1.78165 1.8114,2.59724 0.51736,1.10064 0.69623,2.0818 0.69391,3.80637 -0.002,1.76151 -0.18471,2.71342 -0.75387,3.93568 -0.42495,0.91258 -1.41593,2.19772 -2.28361,2.96148 -0.91524,0.80563 -2.18212,1.5421 -3.14421,1.82781 -0.88624,0.26318 -2.34121,0.46614 -3.23327,0.45101 -0.89205,-0.0151 -1.98192,-0.13741 -2.42192,-0.27174 z m 4.99055,-3.83 c 0.77376,-0.3514 1.60031,-1.06403 2.01799,-1.73985 0.38909,-0.62956 0.79014,-1.65428 0.89122,-2.27715 0.10108,-0.62286 0.002,-1.78097 -0.2197,-2.57357 -0.26482,-0.94584 -0.82247,-1.81961 -1.62268,-2.54255 -0.67055,-0.60581 -1.73178,-1.19763 -2.35828,-1.31517 -0.6265,-0.11753 -1.65471,-0.11696 -2.2849,10e-4 -0.63019,0.11823 -1.65263,0.67942 -2.27207,1.24711 -0.77158,0.7071 -1.25206,1.52753 -1.52568,2.60519 -0.27162,1.06973 -0.30675,1.98549 -0.10979,2.86209 0.1593,0.70898 0.63133,1.73705 1.04897,2.28459 0.41763,0.54755 1.23747,1.23116 1.82185,1.51913 0.58439,0.28798 1.56652,0.52371 2.18252,0.52385 0.616,1.4e-4 1.70975,-0.26757 2.43055,-0.59493 z m 37.39166,3.36966 c -0.89343,-0.41603 -2.15035,-1.3755 -2.80721,-2.1429 -0.65418,-0.76426 -1.40217,-2.10599 -1.6622,-2.98162 -0.26004,-0.87563 -0.47279,-2.33178 -0.47279,-3.23589 0,-0.90412 0.22955,-2.42598 0.51013,-3.38192 0.38765,-1.32078 0.90625,-2.12385 2.16,-3.3448 1.00842,-0.98205 2.16194,-1.75962 2.96699,-2 0.72442,-0.21631 1.94842,-0.39012 2.72,-0.38626 0.77158,0.004 2.05088,0.30036 2.84288,0.65887 0.792,0.35851 1.836,1.03029 2.32,1.49284 l 0.88,0.841 v -4.69987 -4.69986 h 1.92 1.92 v 12.16 12.16 h -1.92 -1.92 v -1.28 c 0,-0.704 -0.13894,-1.28 -0.30875,-1.28 -0.1698,0 -0.45531,0.27387 -0.63446,0.60861 -0.17915,0.33474 -1.07649,0.98274 -1.99409,1.44 -1.13967,0.56793 -2.18083,0.83039 -3.28553,0.82826 -1.0212,-0.002 -2.21338,-0.28075 -3.23497,-0.75646 z m 6.85435,-3.63465 c 0.4639,-0.34354 1.15077,-1.07593 1.5264,-1.62753 0.37562,-0.55161 0.77774,-1.50824 0.89361,-2.12584 0.11586,-0.6176 0.0545,-1.70294 -0.13642,-2.41186 -0.19089,-0.70891 -0.78637,-1.78927 -1.32329,-2.40078 -0.53692,-0.61152 -1.52497,-1.27626 -2.19567,-1.47721 -0.67069,-0.20094 -1.7331,-0.26899 -2.3609,-0.15122 -0.62779,0.11778 -1.59726,0.59769 -2.15438,1.06647 -0.55711,0.46878 -1.20935,1.32242 -1.44942,1.89699 -0.24006,0.57456 -0.43648,1.68791 -0.43648,2.47411 0,0.78619 0.15359,1.83482 0.34131,2.33027 0.18773,0.49546 0.65573,1.24319 1.04,1.66163 0.38428,0.41844 1.13069,0.96065 1.65869,1.20491 0.54552,0.25237 1.56295,0.38811 2.35655,0.31439 0.76811,-0.0713 1.77611,-0.41079 2.24,-0.75433 z m 15.9483,3.93269 c -0.66833,-0.2384 -1.78344,-0.80953 -2.47803,-1.26919 -0.69458,-0.45965 -1.61912,-1.40006 -2.05452,-2.08978 -0.43541,-0.68972 -0.95938,-1.92016 -1.16438,-2.7343 -0.205,-0.81414 -0.29868,-2.40283 -0.20816,-3.53042 0.11732,-1.4616 0.43745,-2.53599 1.11513,-3.74246 0.52281,-0.93077 1.55147,-2.15454 2.28592,-2.71949 0.73444,-0.56496 1.87171,-1.17616 2.52727,-1.35822 0.65555,-0.18206 1.85026,-0.33183 2.65491,-0.33281 0.80465,-9.8e-4 2.12078,0.22234 2.92473,0.49628 0.80396,0.27393 1.97923,1.01555 2.61172,1.64804 0.63249,0.63249 1.4607,1.79183 1.84046,2.57631 0.41213,0.85136 0.75408,2.31545 0.84828,3.63196 l 0.15781,2.20563 h -6.443 c -4.46847,0 -6.44299,0.10776 -6.44299,0.35163 0,0.19341 0.23133,0.83914 0.51406,1.43496 0.28274,0.59582 1.03367,1.40444 1.66873,1.79693 0.80538,0.49776 1.65615,0.71362 2.81257,0.71362 1.29354,0 2.00478,-0.21563 3.23621,-0.98113 l 1.57831,-0.98113 1.15856,1.06175 1.15856,1.06174 -1.32952,1.13802 c -0.73124,0.62591 -2.04595,1.35078 -2.92159,1.61081 -0.87563,0.26004 -2.32192,0.46647 -3.21397,0.45875 -0.89206,-0.008 -2.16874,-0.2091 -2.83707,-0.4475 z m 6.81515,-10.53113 c 0,-0.41397 -0.3259,-1.24197 -0.72423,-1.84 -0.39832,-0.59803 -1.2543,-1.34735 -1.90218,-1.66517 -0.83079,-0.40754 -1.51412,-0.51478 -2.31856,-0.36386 -0.62733,0.11769 -1.5168,0.50989 -1.97659,0.87157 -0.4598,0.36167 -1.03455,1.13279 -1.27722,1.71359 -0.24267,0.58079 -0.44122,1.27661 -0.44122,1.54627 0,0.41616 0.65308,0.49028 4.32,0.49028 h 4.32 z m 63.35793,10.71248 c -0.44114,-0.14453 -1.25265,-0.49578 -1.80336,-0.78056 -0.55071,-0.28478 -1.58296,-1.1786 -2.2939,-1.98627 -0.71093,-0.80766 -1.51942,-2.13414 -1.79664,-2.94773 -0.27722,-0.81359 -0.50403,-2.14747 -0.50403,-2.96417 0,-0.8167 0.2279,-2.25234 0.50645,-3.19031 0.3772,-1.27018 0.93813,-2.13708 2.19797,-3.39693 1.31979,-1.31979 2.10005,-1.81028 3.55044,-2.23192 1.2635,-0.36731 2.50299,-0.4887 3.86973,-0.379 1.42168,0.11412 2.50173,0.43876 3.68641,1.10807 0.92158,0.52066 1.82401,1.18193 2.0054,1.46948 0.26156,0.41466 0.0724,0.78642 -0.9142,1.7968 l -1.244,1.27397 -0.92352,-0.77709 c -0.50794,-0.4274 -1.47914,-0.94356 -2.15823,-1.14702 -0.69343,-0.20776 -1.75055,-0.27316 -2.41139,-0.14919 -0.64717,0.12141 -1.68349,0.68521 -2.30294,1.2529 -0.77158,0.7071 -1.25205,1.52753 -1.52568,2.60519 -0.26784,1.05488 -0.30649,1.99977 -0.11734,2.86851 0.15514,0.71251 0.53821,1.64657 0.85126,2.07569 0.31305,0.42913 0.96685,1.07713 1.45288,1.44 0.65673,0.49032 1.36408,0.65978 2.75412,0.65978 1.58244,0 2.09083,-0.15536 3.30188,-1.00898 l 1.43145,-1.00898 1.15653,1.18439 1.15653,1.18439 -1.04188,0.98876 c -0.57303,0.54382 -1.54587,1.2452 -2.16187,1.55862 -0.69853,0.35541 -2.02315,0.60646 -3.52,0.66712 -1.32,0.0535 -2.76093,-0.021 -3.20207,-0.16552 z m 18.14693,-0.18135 c -0.66833,-0.2384 -1.78344,-0.80953 -2.47803,-1.26919 -0.69459,-0.45965 -1.61912,-1.40006 -2.05453,-2.08978 -0.4354,-0.68972 -0.95937,-1.92016 -1.16437,-2.7343 -0.20501,-0.81414 -0.29868,-2.40283 -0.20817,-3.53042 0.11732,-1.4616 0.43746,-2.53599 1.11513,-3.74246 0.52281,-0.93077 1.55148,-2.15454 2.28592,-2.71949 0.73445,-0.56496 1.87172,-1.17616 2.52727,-1.35822 0.65556,-0.18206 1.85027,-0.33183 2.65492,-0.33281 0.80464,-9.8e-4 2.12077,0.22234 2.92473,0.49628 0.80395,0.27393 1.97922,1.01555 2.61171,1.64804 0.63249,0.63249 1.4607,1.79183 1.84046,2.57631 0.41214,0.85136 0.75409,2.31545 0.84829,3.63196 l 0.15781,2.20563 h -6.443 c -4.46847,0 -6.443,0.10776 -6.443,0.35163 0,0.19341 0.23133,0.83914 0.51407,1.43496 0.28274,0.59582 1.03366,1.40444 1.66872,1.79693 0.80538,0.49776 1.65616,0.71362 2.81257,0.71362 1.29355,0 2.00479,-0.21563 3.23622,-0.98113 l 1.5783,-0.98113 1.15856,1.06175 1.15856,1.06174 -1.32952,1.13802 c -0.73124,0.62591 -2.04595,1.35078 -2.92158,1.61081 -0.87563,0.26004 -2.32192,0.46647 -3.21398,0.45875 -0.89205,-0.008 -2.16873,-0.2091 -2.83706,-0.4475 z m 6.81514,-10.53113 c 0,-0.41397 -0.3259,-1.24197 -0.72422,-1.84 -0.39832,-0.59803 -1.25431,-1.34735 -1.90218,-1.66517 -0.83079,-0.40754 -1.51413,-0.51478 -2.31857,-0.36386 -0.62733,0.11769 -1.51679,0.50989 -1.97659,0.87157 -0.4598,0.36167 -1.03454,1.13279 -1.27722,1.71359 -0.24267,0.58079 -0.44122,1.27661 -0.44122,1.54627 0,0.41616 0.65308,0.49028 4.32,0.49028 h 4.32 z m 21.66489,10.53113 c -0.6683,-0.2384 -1.7834,-0.80953 -2.478,-1.26919 -0.6946,-0.45965 -1.6191,-1.40006 -2.0545,-2.08978 -0.4355,-0.68972 -0.9594,-1.92016 -1.1644,-2.7343 -0.205,-0.81414 -0.2987,-2.40283 -0.2082,-3.53042 0.1173,-1.4616 0.4375,-2.53599 1.1151,-3.74246 0.5229,-0.93077 1.5515,-2.15454 2.286,-2.71949 0.7344,-0.56496 1.8717,-1.17616 2.5272,-1.35822 0.6556,-0.18206 1.8503,-0.33183 2.6549,-0.33281 0.8047,-9.8e-4 2.1208,0.22234 2.9248,0.49628 0.8039,0.27393 1.9792,1.01555 2.6117,1.64804 0.6325,0.63249 1.4607,1.79183 1.8405,2.57631 0.4121,0.85136 0.754,2.31545 0.8482,3.63196 l 0.1578,2.20563 h -6.4429 c -4.4685,0 -6.443,0.10776 -6.443,0.35163 0,0.19341 0.2313,0.83914 0.514,1.43496 0.2828,0.59582 1.0337,1.40444 1.6687,1.79693 0.8054,0.49776 1.6562,0.71362 2.8126,0.71362 1.2936,0 2.0048,-0.21563 3.2362,-0.98113 l 1.5783,-0.98113 1.1586,1.06175 1.1586,1.06174 -1.3296,1.13802 c -0.7312,0.62591 -2.0459,1.35078 -2.9215,1.61081 -0.8757,0.26004 -2.322,0.46647 -3.214,0.45875 -0.8921,-0.008 -2.1688,-0.2091 -2.8371,-0.4475 z m 6.8152,-10.53113 c 0,-0.41397 -0.3259,-1.24197 -0.7243,-1.84 -0.3983,-0.59803 -1.2543,-1.34735 -1.9022,-1.66517 -0.8307,-0.40754 -1.5141,-0.51478 -2.3185,-0.36386 -0.6273,0.11769 -1.5168,0.50989 -1.9766,0.87157 -0.4598,0.36167 -1.0346,1.13279 -1.2772,1.71359 -0.2427,0.58079 -0.4412,1.27661 -0.4412,1.54627 0,0.41616 0.653,0.49028 4.32,0.49028 h 4.32 z m 33.2779,10.71248 c -0.4412,-0.14453 -1.2527,-0.49578 -1.8034,-0.78056 -0.5507,-0.28478 -1.5829,-1.1786 -2.2939,-1.98627 -0.7109,-0.80766 -1.5194,-2.13414 -1.7966,-2.94773 -0.2772,-0.81359 -0.504,-2.14747 -0.504,-2.96417 0,-0.8167 0.2279,-2.25234 0.5064,-3.19031 0.3772,-1.27018 0.9381,-2.13708 2.198,-3.39693 1.3198,-1.31979 2.1,-1.81028 3.5504,-2.23192 1.2635,-0.36731 2.503,-0.4887 3.8697,-0.379 1.4217,0.11412 2.5018,0.43876 3.6865,1.10807 0.9215,0.52066 1.824,1.18193 2.0054,1.46948 0.2615,0.41466 0.072,0.78642 -0.9142,1.7968 l -1.244,1.27397 -0.9236,-0.77709 c -0.5079,-0.4274 -1.4791,-0.94356 -2.1582,-1.14702 -0.6934,-0.20776 -1.7505,-0.27316 -2.4114,-0.14919 -0.6472,0.12141 -1.6835,0.68521 -2.3029,1.2529 -0.7716,0.7071 -1.2521,1.52753 -1.5257,2.60519 -0.2678,1.05488 -0.3065,1.99977 -0.1173,2.86851 0.1551,0.71251 0.5382,1.64657 0.8512,2.07569 0.3131,0.42913 0.9669,1.07713 1.4529,1.44 0.6567,0.49032 1.3641,0.65978 2.7541,0.65978 1.5825,0 2.0908,-0.15536 3.3019,-1.00898 l 1.4314,-1.00898 1.1566,1.18439 1.1565,1.18439 -1.0419,0.98876 c -0.573,0.54382 -1.5458,1.2452 -2.1618,1.55862 -0.6986,0.35541 -2.0232,0.60646 -3.52,0.66712 -1.32,0.0535 -2.761,-0.021 -3.2021,-0.16552 z m 24.4821,-0.14415 c -0.528,-0.20661 -1.2836,-0.56047 -1.679,-0.78635 -0.3954,-0.22589 -1.0074,-0.97615 -1.36,-1.66726 -0.3526,-0.6911 -0.641,-1.82891 -0.641,-2.52846 0,-0.69956 0.1531,-1.6773 0.3403,-2.17275 0.1872,-0.49546 0.7232,-1.30211 1.1911,-1.79257 0.4909,-0.5145 1.5923,-1.10731 2.6037,-1.40133 1.2603,-0.36638 2.432,-0.45696 4.1689,-0.32231 1.3288,0.10301 2.7474,0.28436 3.1525,0.40298 0.6761,0.19799 0.7195,0.14004 0.5286,-0.70595 -0.1144,-0.50691 -0.4596,-1.28165 -0.7671,-1.72165 -0.3076,-0.44 -1.1214,-0.99105 -1.8086,-1.22455 -0.7627,-0.25916 -1.836,-0.34911 -2.755,-0.23089 -0.8281,0.10651 -2.078,0.39559 -2.7775,0.6424 l -1.2719,0.44874 -0.5025,-1.47485 c -0.2764,-0.81118 -0.5025,-1.58164 -0.5025,-1.71214 0,-0.1305 0.756,-0.50085 1.68,-0.823 1.1948,-0.41657 2.604,-0.58571 4.88,-0.58571 2.886,0 3.3416,0.0833 4.6434,0.84862 0.8892,0.52277 1.7493,1.38287 2.24,2.24 0.7671,1.33997 0.8004,1.63668 0.8997,8.03138 l 0.1032,6.64 h -2.1032 -2.1031 v -0.98845 -0.98845 l -0.97,0.81615 c -0.5334,0.44888 -1.5054,0.96488 -2.16,1.14666 -0.6545,0.18179 -1.838,0.32036 -2.63,0.30796 -0.792,-0.0124 -1.872,-0.19161 -2.4,-0.39822 z m 7.3205,-4.03732 c 0.6719,-0.66544 0.9312,-1.2441 0.96,-2.14208 l 0.04,-1.23035 -1.7455,-0.42947 c -1.0028,-0.24674 -2.3207,-0.34321 -3.0975,-0.22673 -0.7436,0.11152 -1.7221,0.4939 -2.1745,0.84975 -0.6237,0.49058 -0.8225,0.93884 -0.8225,1.85417 0,0.79237 0.2154,1.40213 0.6269,1.77451 0.3447,0.31204 1.1007,0.66759 1.68,0.79013 0.5792,0.12254 1.6291,0.0988 2.3331,-0.0527 0.704,-0.15152 1.6942,-0.68578 2.2005,-1.18724 z M 602.93249,410.6308 v -11.68 h 8.64 8.64 v 1.76 1.76 h -6.56 -6.56 v 3.2 3.2 h 5.76 5.76 v 1.76 1.76 h -5.76 -5.76 v 3.2 3.2 h 6.72 6.72 v 1.76 1.76 h -8.8 -8.8 z m 21.44,2.88 v -8.8 h 1.92 1.92 v 1.12 c 0,0.616 0.1189,1.12 0.26422,1.12 0.14532,0 0.5948,-0.35189 0.99885,-0.78198 0.40404,-0.43008 1.2069,-1.00608 1.78414,-1.28 0.57723,-0.27391 1.74775,-0.49486 2.60115,-0.491 0.85341,0.004 2.15412,0.28056 2.89048,0.61488 0.84158,0.38209 1.67353,1.11323 2.24,1.96855 l 0.90116,1.3607 0.10238,6.98442 0.10237,6.98443 h -1.91129 -1.91129 l -0.11108,-5.68 c -0.0983,-5.02883 -0.18633,-5.80841 -0.76745,-6.8 -0.43004,-0.73381 -1.05448,-1.2518 -1.81096,-1.50223 -0.79099,-0.26185 -1.49874,-0.2872 -2.2474,-0.0805 -0.60104,0.16596 -1.42405,0.65434 -1.82891,1.08529 -0.40486,0.43096 -0.8559,1.40318 -1.0023,2.16049 -0.14641,0.75731 -0.27247,3.50094 -0.28013,6.09694 l -0.0139,4.72 h -1.92 -1.92 z m 36.48,0 v -8.8 h 1.92 1.92 v 8.8 8.8 h -1.92 -1.92 z m 8.64,0 v -8.8 h 1.92 1.92 v 1.12 c 0,0.616 0.1189,1.12 0.26422,1.12 0.14533,0 0.5948,-0.35189 0.99885,-0.78198 0.40404,-0.43008 1.2069,-1.00608 1.78414,-1.28 0.57723,-0.27391 1.74776,-0.49486 2.60116,-0.491 0.8534,0.004 2.15411,0.28056 2.89047,0.61488 0.84158,0.38209 1.67354,1.11323 2.24,1.96855 l 0.90117,1.3607 0.10237,6.98442 0.10237,6.98443 h -1.91129 -1.91129 l -0.11108,-5.68 c -0.0983,-5.02883 -0.18633,-5.80841 -0.76745,-6.8 -0.43004,-0.73381 -1.05448,-1.2518 -1.81095,-1.50223 -0.79099,-0.26185 -1.49874,-0.2872 -2.2474,-0.0805 -0.60105,0.16596 -1.42406,0.65434 -1.82892,1.08529 -0.40486,0.43096 -0.85589,1.40318 -1.0023,2.16049 -0.14641,0.75731 -0.27246,3.50094 -0.28013,6.09694 l -0.0139,4.72 h -1.92 -1.92 z m 133.44001,0 v -8.8 h 1.90403 1.90403 l 0.096,1.8207 0.096,1.82071 0.85889,-1.30194 c 0.51967,-0.78775 1.41265,-1.57001 2.26103,-1.98071 0.77118,-0.37332 1.78868,-0.67876 2.26111,-0.67876 0.84265,0 0.85897,0.039 0.85897,2.05187 v 2.05187 l -1.27254,0.215 c -0.69991,0.11824 -1.74391,0.52711 -2.32,0.90859 -0.5761,0.38147 -1.39145,1.38716 -1.81188,2.23486 -0.662,1.33475 -0.78591,2.13867 -0.92476,5.99954 l -0.16033,4.45827 h -1.87525 -1.87524 z m 13.76,0 v -8.8 h 1.92 1.92 v 8.8 8.8 h -1.92 -1.92 z m 30.08,0 v -8.8 h 1.90403 1.90404 l 0.096,1.8207 0.096,1.82071 0.85889,-1.30194 c 0.51967,-0.78775 1.41265,-1.57001 2.26103,-1.98071 0.77118,-0.37332 1.78868,-0.67876 2.26112,-0.67876 0.84265,0 0.85896,0.039 0.85896,2.05187 v 2.05187 l -1.27254,0.215 c -0.6999,0.11824 -1.7439,0.52711 -2.32,0.90859 -0.5761,0.38147 -1.39145,1.38716 -1.81188,2.23486 -0.662,1.33475 -0.78591,2.13867 -0.92476,5.99954 l -0.16033,4.45827 h -1.87524 -1.87525 z m 73.92001,-2.88 v -11.68 h 8.64 8.64 v 1.76 1.76 h -6.56 -6.56 v 3.2 3.2 h 5.76 5.76 v 1.76 1.76 h -5.76 -5.76 v 3.2 3.2 h 6.72 6.72 v 1.76 1.76 h -8.8 -8.8 z m 20.55127,10.64 c 0.43298,-0.572 1.90085,-2.58972 3.26194,-4.48381 l 2.4747,-3.4438 -2.84121,-3.9162 c -1.56267,-2.15391 -2.94995,-4.09619 -3.08284,-4.31619 -0.18419,-0.30492 0.29081,-0.4 1.99828,-0.4 h 2.23991 l 1.85898,2.71187 c 1.02243,1.49153 1.96094,2.71553 2.08557,2.72 0.12463,0.004 1.06063,-1.21011 2.08,-2.69906 l 1.8534,-2.70718 2.1968,-0.0128 2.19681,-0.0128 -0.57501,0.88 c -0.31625,0.484 -1.57716,2.248 -2.80202,3.92 -1.22486,1.672 -2.34628,3.19347 -2.49206,3.38105 -0.16083,0.20696 0.90084,1.96849 2.70009,4.48 1.63083,2.27642 3.07495,4.31895 3.20915,4.53895 0.18604,0.30497 -0.28204,0.4 -1.97028,0.4 h -2.2143 l -2.00918,-2.88 c -1.10505,-1.584 -2.11305,-2.88 -2.24,-2.88 -0.12695,0 -1.13495,1.296 -2.24,2.88 l -2.00918,2.88 h -2.23339 -2.23339 z m 58.16869,-11.12 v -12.16 h 1.92003 1.9201 v 12.16 12.16 h -1.9201 -1.92003 z m 28.16013,3.36 v -8.8 h 1.92 1.92 v 1.12 c 0,0.616 0.1189,1.12 0.2642,1.12 0.1453,0 0.5948,-0.35189 0.9988,-0.78198 0.4041,-0.43008 1.2069,-1.00608 1.7842,-1.28 0.5772,-0.27391 1.7477,-0.49486 2.6011,-0.491 0.8534,0.004 2.1541,0.28056 2.8905,0.61488 0.8416,0.38209 1.6735,1.11323 2.24,1.96855 l 0.9012,1.3607 0.1023,6.98442 0.1024,6.98443 h -1.9113 -1.9113 l -0.1111,-5.68 c -0.098,-5.02883 -0.1863,-5.80841 -0.7674,-6.8 -0.43,-0.73381 -1.0545,-1.2518 -1.811,-1.50223 -0.791,-0.26185 -1.4987,-0.2872 -2.2474,-0.0805 -0.601,0.16596 -1.424,0.65434 -1.8289,1.08529 -0.4048,0.43096 -0.8559,1.40318 -1.0023,2.16049 -0.1464,0.75731 -0.2724,3.50094 -0.2801,6.09694 l -0.014,4.72 h -1.92 -1.92 z m 39.04,0 v -8.8 h 1.92 1.92 v 8.8 8.8 h -1.92 -1.92 z m -56.2582,-11.61807 c 0.23,-0.31794 1.0643,-1.39794 1.8539,-2.4 l 1.4358,-1.82193 h 1.9571 1.9572 l 1.7874,2.32 1.7873,2.32 -1.6261,0.0983 c -1.4466,0.0875 -1.7376,-0.01 -2.6356,-0.88 -0.5551,-0.53807 -1.1275,-0.97831 -1.2718,-0.97831 -0.1444,0 -0.7546,0.432 -1.3559,0.96 -0.9044,0.79407 -1.3712,0.96 -2.7004,0.96 -1.4906,0 -1.5767,-0.0419 -1.1889,-0.57807 z M 660.53249,400.2308 v -1.92 h 2.08 2.08 v 1.92 1.92 h -2.08 -2.08 z m 155.84001,0 v -1.92 h 2.08 2.08 v 1.92 1.92 h -2.08 -2.08 z m 249.9201,0 v -1.92 h 2.08 2.08 v 1.92 1.92 h -2.08 -2.08 z M 313.49248,379.23619 c -0.704,-0.0728 -2.59883,-0.3476 -4.21073,-0.61073 -1.6119,-0.26313 -4.20311,-0.84715 -5.75824,-1.29781 -1.55513,-0.45066 -3.99742,-1.36761 -5.4273,-2.03768 -1.42988,-0.67006 -3.51868,-1.83861 -4.64176,-2.59677 -1.12309,-0.75816 -3.009,-2.30718 -4.19093,-3.44226 -1.18192,-1.13509 -2.8555,-3.08897 -3.71907,-4.34196 -0.86356,-1.25299 -2.02831,-3.18947 -2.58833,-4.30329 -0.56002,-1.11382 -1.5026,-3.48982 -2.09461,-5.28 -0.59201,-1.79018 -1.33567,-4.62287 -1.65258,-6.29487 -0.52321,-2.76043 -0.58565,-5.72537 -0.67899,-32.24 l -0.10279,-29.2 9.05266,0.007 c 8.41025,0.007 9.15485,0.0532 10.49267,0.6581 0.792,0.35809 1.92061,1.11093 2.50804,1.67297 0.58742,0.56205 1.37942,1.5979 1.76,2.3019 0.68732,1.27143 0.69313,1.4429 0.86657,25.6 0.17134,23.86354 0.18794,24.36805 0.8847,26.88 0.39054,1.408 1.06948,3.29744 1.50874,4.19876 0.43927,0.90133 1.37092,2.28888 2.07033,3.08345 0.69941,0.79457 1.95789,1.88007 2.79663,2.41222 0.83874,0.53215 2.51215,1.2686 3.71869,1.63656 1.57802,0.48124 3.06187,0.66901 5.28693,0.66901 2.01504,0 3.82952,-0.20417 5.2056,-0.58575 1.16181,-0.32216 2.74765,-0.95804 3.52409,-1.41306 0.77643,-0.45502 2.07863,-1.54031 2.89376,-2.41176 0.81514,-0.87145 1.86361,-2.33738 2.32993,-3.25762 0.46633,-0.92025 1.15592,-2.77537 1.53244,-4.1225 0.66425,-2.37664 0.68974,-3.17566 0.85906,-26.92931 0.17336,-24.32129 0.17897,-24.4883 0.86645,-25.76 0.38057,-0.704 1.17257,-1.73985 1.76,-2.3019 0.58742,-0.56204 1.71604,-1.31488 2.50804,-1.67297 1.33765,-0.6048 2.08249,-0.65157 10.48,-0.6581 l 9.04,-0.007 v 27.05261 c 0,17.01026 -0.12673,28.20612 -0.3414,30.16 -0.18776,1.70906 -0.63264,4.47539 -0.98861,6.14739 -0.35598,1.672 -1.20815,4.48244 -1.89372,6.24543 -0.68558,1.76299 -1.99221,4.41719 -2.90364,5.89821 -0.91143,1.48102 -2.71929,3.8045 -4.01747,5.16329 -1.29819,1.3588 -3.43792,3.21547 -4.75496,4.12594 -1.31705,0.91047 -3.58018,2.21097 -5.02918,2.88999 -1.449,0.67903 -3.92546,1.60868 -5.50324,2.06591 -1.57778,0.45722 -4.16899,1.05019 -5.75824,1.3177 -1.58925,0.26751 -5.48154,0.53697 -8.64954,0.5988 -3.168,0.0618 -6.336,0.0529 -7.04,-0.0199 z m 380.09648,-0.44469 c -1.44295,-0.15168 -3.85782,-0.50707 -5.36637,-0.78975 -1.50856,-0.28267 -4.03498,-0.93621 -5.61428,-1.4523 -1.5793,-0.51609 -4.06157,-1.50637 -5.51616,-2.20062 -1.45459,-0.69424 -4.01158,-2.15671 -5.68218,-3.24993 -1.9167,-1.25425 -4.28847,-3.24228 -6.42786,-5.38787 -1.8647,-1.87012 -4.11428,-4.48241 -4.99906,-5.80509 -0.88477,-1.32269 -2.27526,-3.73212 -3.08996,-5.3543 -0.81471,-1.62218 -1.84795,-4.04167 -2.29608,-5.37664 -0.44814,-1.33497 -1.12412,-3.82153 -1.50219,-5.5257 -0.5785,-2.60761 -0.69017,-4.1631 -0.70486,-9.81848 -0.0154,-5.90675 0.0725,-7.122 0.72627,-10.04176 0.40906,-1.82697 1.18162,-4.56297 1.7168,-6.08 0.53518,-1.51703 1.47874,-3.76624 2.09679,-4.99824 0.61805,-1.232 1.77222,-3.248 2.56482,-4.48 0.7926,-1.232 2.39264,-3.36996 3.55564,-4.75101 1.16301,-1.38106 3.12428,-3.37089 4.35839,-4.42186 1.2341,-1.05097 3.2292,-2.56897 4.43354,-3.37332 1.20435,-0.80436 3.58035,-2.14797 5.28,-2.9858 1.69966,-0.83784 4.46787,-1.96088 6.15159,-2.49565 1.68371,-0.53476 4.41971,-1.22448 6.08,-1.5327 2.17746,-0.40423 4.71303,-0.56373 9.0987,-0.57235 3.52773,-0.007 7.15464,0.16282 8.64,0.40439 1.408,0.22899 3.70759,0.70467 5.11021,1.05707 1.40262,0.35239 3.41862,0.9348 4.48,1.29424 1.06138,0.35944 3.60268,1.51091 5.64732,2.55883 2.04465,1.04792 5.25606,3.06048 7.13646,4.47235 1.88041,1.41188 3.37552,2.69244 3.32247,2.84569 -0.0531,0.15324 -2.30144,3.00146 -4.9964,6.32937 -3.86437,4.77195 -5.22613,6.22827 -6.44331,6.89074 -1.23166,0.67036 -1.9779,0.84001 -3.69491,0.84001 -1.97282,0 -2.4743,-0.15673 -6.0367,-1.8867 -2.13683,-1.03768 -4.82114,-2.14935 -5.96514,-2.47037 -1.58913,-0.44593 -3.2128,-0.58415 -6.88,-0.58569 -4.50972,-0.002 -4.94474,0.0533 -7.19328,0.9117 -1.3163,0.50254 -3.29101,1.48068 -4.38825,2.17365 -1.09723,0.69296 -3.01637,2.35364 -4.26475,3.69039 -1.65922,1.77668 -2.64712,3.21276 -3.67259,5.33874 -0.77155,1.59955 -1.66104,3.84428 -1.97664,4.98828 -0.43645,1.58208 -0.57165,3.22903 -0.56476,6.88 0.007,3.56471 0.15439,5.33529 0.57381,6.88 0.31062,1.144 1.22014,3.43828 2.02116,5.0984 1.20647,2.50044 1.90332,3.46322 4.06084,5.61054 1.90587,1.89686 3.29112,2.94432 5.16446,3.9051 1.408,0.72212 3.424,1.58061 4.48,1.90774 1.55399,0.48142 2.92652,0.59208 7.2,0.58055 4.86865,-0.0131 5.47944,-0.0815 7.84,-0.87766 1.408,-0.47488 3.136,-1.19211 3.84,-1.59385 l 1.28,-0.73043 0.0876,-5.32563 0.0876,-5.32563 -6.22106,-0.10457 -6.22106,-0.10456 -1.38657,-0.97421 c -0.76261,-0.53582 -1.74656,-1.61582 -2.18656,-2.4 -0.76757,-1.36799 -0.8044,-1.68851 -0.90845,-7.90579 l -0.10844,-6.48 h 19.71087 19.71086 l -0.0824,19.91865 -0.0824,19.91865 -2.24,1.70255 c -1.232,0.9364 -3.68,2.55635 -5.44,3.59989 -1.76,1.04354 -4.712,2.53702 -6.56,3.31884 -1.848,0.78182 -4.656,1.79769 -6.24,2.2575 -1.584,0.4598 -4.46797,1.10886 -6.40883,1.44236 -1.94085,0.33349 -5.54085,0.67648 -8,0.76219 -2.45915,0.0857 -5.65177,0.0317 -7.09471,-0.11995 z m 347.18404,-10e-4 c -1.4517,-0.15231 -3.8238,-0.5185 -5.2714,-0.81374 -1.4475,-0.29524 -4.0648,-1.03556 -5.8161,-1.64516 -1.7513,-0.60959 -4.1399,-1.58965 -5.308,-2.17791 -1.1682,-0.58825 -3.4831,-1.97316 -5.1444,-3.07756 -1.8073,-1.20146 -4.3776,-3.36502 -6.399,-5.38646 -2.0052,-2.00522 -4.1852,-4.59203 -5.3632,-6.36415 -1.0916,-1.64214 -2.5638,-4.19912 -3.2717,-5.68218 -0.7078,-1.48307 -1.6964,-3.9555 -2.1969,-5.4943 -0.5004,-1.5388 -1.1799,-4.23781 -1.5098,-5.99781 -0.4487,-2.39333 -0.59533,-4.61167 -0.58153,-8.8 0.013,-3.96835 0.18153,-6.42739 0.57783,-8.43968 0.3076,-1.56182 0.9242,-4.00982 1.3703,-5.44 0.4462,-1.43018 1.5741,-4.18432 2.5066,-6.12032 0.9326,-1.936 2.5143,-4.65971 3.515,-6.05269 1.0008,-1.39298 2.5364,-3.35689 3.4126,-4.36426 0.8762,-1.00736 2.7015,-2.75986 4.0562,-3.89445 1.3547,-1.13458 3.3271,-2.64334 4.3831,-3.3528 1.056,-0.70946 3.2672,-1.96634 4.9138,-2.79307 1.6466,-0.82673 4.4546,-1.99189 6.24,-2.58926 1.7854,-0.59737 4.6142,-1.33955 6.2862,-1.64929 2.1872,-0.4052 4.6557,-0.56234 8.8,-0.56018 4.6715,0.002 6.441,0.13849 9.3641,0.71995 1.9822,0.39432 4.8622,1.15767 6.4,1.69633 1.5377,0.53866 4.322,1.76854 6.1873,2.73307 1.8653,0.96454 4.6013,2.66229 6.08,3.77279 1.4787,1.11049 3.9485,3.32686 5.4885,4.92526 1.5399,1.5984 3.7567,4.36647 4.9261,6.15128 1.1694,1.78481 2.737,4.63385 3.4835,6.33121 0.7465,1.69736 1.6537,4.09411 2.0159,5.32611 0.3622,1.232 0.9128,3.536 1.2236,5.12 0.4165,2.12342 0.5617,4.39316 0.5525,8.64 -0.01,4.65604 -0.1449,6.37969 -0.7035,8.9933 -0.3801,1.77831 -1.0684,4.37031 -1.5296,5.76 -0.4611,1.38968 -1.5417,3.94167 -2.4011,5.67108 -0.8595,1.72941 -2.3181,4.24941 -3.2412,5.6 -0.9232,1.35059 -3.2642,4.05945 -5.2023,6.0197 -2.3175,2.34399 -4.5645,4.24499 -6.5638,5.55312 -1.672,1.09397 -4.0306,2.48928 -5.2412,3.10069 -1.2107,0.6114 -3.8747,1.66537 -5.92,2.34215 -2.0454,0.67678 -5.0868,1.45483 -6.7588,1.72899 -1.672,0.27416 -4.768,0.56344 -6.88,0.64283 -2.112,0.0794 -5.0278,0.0197 -6.4796,-0.13259 z m 12.0457,-22.84619 c 1.3014,-0.45448 2.9879,-1.19076 3.748,-1.63616 0.76,-0.44541 2.0587,-1.39568 2.8861,-2.11173 0.8273,-0.71605 2.065,-1.97314 2.7504,-2.79355 0.6855,-0.8204 1.7288,-2.35564 2.3186,-3.41164 0.5899,-1.056 1.4614,-3.144 1.9368,-4.64 0.6522,-2.05209 0.9052,-3.62824 1.0306,-6.41871 0.1242,-2.76563 0.028,-4.38017 -0.3803,-6.4 -0.3005,-1.48571 -0.9771,-3.73682 -1.5034,-5.00247 -0.5264,-1.26565 -1.6555,-3.2958 -2.5092,-4.51144 -0.8537,-1.21564 -2.3918,-2.96117 -3.418,-3.87895 -1.0261,-0.91779 -3.0177,-2.23421 -4.4257,-2.92539 -1.408,-0.69117 -3.424,-1.47793 -4.48,-1.74835 -1.0991,-0.28146 -3.2882,-0.49168 -5.12,-0.49168 -1.8844,0 -3.9895,0.20705 -5.12,0.50358 -1.056,0.27696 -2.6715,0.84673 -3.5899,1.26615 -0.9185,0.41942 -2.3188,1.20907 -3.112,1.75478 -0.7932,0.54571 -2.1711,1.73272 -3.062,2.6378 -0.8909,0.90507 -2.253,2.66464 -3.0269,3.91014 -0.7739,1.24549 -1.7711,3.35358 -2.2159,4.68462 -0.4449,1.33105 -0.9766,3.49105 -1.1814,4.8 -0.2157,1.37808 -0.2926,3.65962 -0.1826,5.41992 0.1045,1.672 0.4921,4.11606 0.8612,5.43124 0.3692,1.31518 1.2359,3.47518 1.9261,4.8 0.6902,1.32482 1.8689,3.14724 2.6192,4.04983 0.7503,0.90258 2.038,2.21819 2.8615,2.92356 0.8236,0.70537 2.2636,1.71341 3.2,2.24008 0.9365,0.52667 2.6387,1.25526 3.7827,1.61909 1.144,0.36383 2.44,0.7309 2.88,0.81571 0.44,0.0848 2.456,0.10598 4.48,0.0471 2.9408,-0.0856 4.1552,-0.27311 6.0461,-0.93348 z m -522.52621,22.64997 c -0.792,-0.0721 -2.952,-0.35427 -4.8,-0.62695 -1.848,-0.27269 -4.8,-0.86761 -6.56,-1.32207 -1.76,-0.45445 -4.4329,-1.29447 -5.93978,-1.8667 -1.50688,-0.57223 -4.03367,-1.69025 -5.6151,-2.48449 -1.58143,-0.79425 -4.18607,-2.32082 -5.78808,-3.39239 -1.60201,-1.07157 -3.59818,-2.56886 -4.43593,-3.32733 l -1.52318,-1.37902 4.57698,-5.58205 c 2.51733,-3.07013 5.0243,-5.88463 5.57103,-6.25445 0.54673,-0.36983 1.55505,-0.85592 2.24071,-1.08022 0.74698,-0.24435 1.99757,-0.33972 3.12014,-0.23793 1.45814,0.13222 2.42325,0.49143 4.35334,1.62031 1.36393,0.79773 3.19987,1.76335 4.07987,2.14582 0.88,0.38248 2.78538,1.10142 4.23418,1.59766 1.4488,0.49623 3.8248,1.1559 5.28,1.46592 1.77301,0.37773 4.07091,0.56513 6.96582,0.56809 3.73777,0.004 4.56538,-0.0928 6.14069,-0.71719 1.06381,-0.42162 2.22589,-1.18309 2.79538,-1.8317 0.53607,-0.61056 1.06652,-1.47603 1.17877,-1.92328 0.11226,-0.44724 0.13079,-1.46355 0.0412,-2.25845 -0.11363,-1.00813 -0.44013,-1.73507 -1.07947,-2.40337 -0.50411,-0.52695 -1.37349,-1.24091 -1.93196,-1.58657 -0.55847,-0.34567 -2.07047,-0.99877 -3.36,-1.45134 -1.28953,-0.45256 -5.88871,-1.73385 -10.22039,-2.84731 -4.33168,-1.11345 -9.29968,-2.55615 -11.04,-3.20599 -1.74032,-0.64984 -4.02821,-1.61247 -5.08421,-2.13916 -1.056,-0.5267 -2.8757,-1.58903 -4.04377,-2.36074 -1.16807,-0.77172 -2.96968,-2.30742 -4.00359,-3.41267 -1.03391,-1.10524 -2.42225,-3.04176 -3.0852,-4.30336 -0.66295,-1.2616 -1.50323,-3.41708 -1.86728,-4.78997 -0.50243,-1.89469 -0.66487,-3.49852 -0.67416,-6.65615 -0.008,-2.62898 0.17219,-5.00537 0.48887,-6.45699 0.2756,-1.26335 0.85594,-3.1755 1.28964,-4.24922 0.43369,-1.07372 1.2716,-2.76599 1.86201,-3.76061 0.59041,-0.99461 2.00584,-2.80629 3.1454,-4.02594 1.13956,-1.21966 2.93956,-2.83292 4,-3.58504 1.06044,-0.75211 2.93608,-1.87127 4.16808,-2.48701 1.232,-0.61575 3.40673,-1.4875 4.83273,-1.93722 1.42601,-0.44972 4.10849,-1.04274 5.96107,-1.31782 1.85258,-0.27508 5.26353,-0.50015 7.57988,-0.50015 2.31635,0 5.60987,0.15363 7.31893,0.34139 1.70906,0.18777 4.45619,0.63126 6.10472,0.98552 1.64853,0.35427 4.09653,1.00095 5.44,1.43706 1.34347,0.43611 3.95063,1.51106 5.79369,2.38876 1.84307,0.87771 4.73412,2.51659 6.42457,3.64197 1.69045,1.12538 3.22864,2.23496 3.41819,2.46572 0.2622,0.31922 -0.6622,1.87072 -3.86457,6.48631 -3.42138,4.93122 -4.49051,6.24056 -5.7121,6.99547 -1.09976,0.67962 -2.04712,0.97243 -3.53181,1.09161 -1.92508,0.15453 -2.23305,0.0726 -6.01711,-1.59986 -2.19351,-0.9695 -4.95295,-2.05983 -6.13209,-2.42296 -1.17915,-0.36312 -3.31906,-0.88315 -4.75535,-1.15561 -1.4363,-0.27246 -3.72141,-0.49538 -5.07802,-0.49538 -1.35662,0 -3.24871,0.23208 -4.20465,0.51574 -0.95595,0.28366 -2.15223,0.81039 -2.65842,1.17052 -0.50619,0.36012 -1.2041,1.29626 -1.55093,2.08031 -0.47176,1.06651 -0.57762,1.77877 -0.42028,2.82797 0.12186,0.81259 0.57025,1.83018 1.06613,2.4195 0.4788,0.56903 1.89615,1.49775 3.21733,2.10818 1.42965,0.66053 5.53977,1.89612 10.41583,3.1312 4.42988,1.12207 9.56136,2.55928 11.40329,3.1938 1.84193,0.63452 4.66798,1.78936 6.28012,2.56632 1.61213,0.77696 4.08687,2.28352 5.49943,3.34792 1.41256,1.0644 3.16873,2.6875 3.90258,3.6069 0.73386,0.9194 1.81307,2.62011 2.39825,3.77934 0.58518,1.15924 1.31953,3.03124 1.63189,4.16 0.42317,1.52925 0.57158,3.27563 0.58231,6.8523 0.011,3.67113 -0.12709,5.36443 -0.58719,7.2 -0.33087,1.32 -1.0835,3.457 -1.67252,4.74889 -0.58903,1.29188 -1.70431,3.23588 -2.47842,4.32 -0.77411,1.08411 -2.13554,2.65159 -3.0254,3.48328 -0.88986,0.8317 -2.63105,2.16756 -3.86931,2.96859 -1.23826,0.80102 -3.1917,1.8783 -4.34097,2.39394 -1.14927,0.51565 -3.06209,1.22319 -4.2507,1.57231 -1.1886,0.34913 -3.3851,0.86753 -4.8811,1.152 -1.57058,0.29866 -4.95123,0.56328 -8,0.62622 -2.904,0.0599 -5.928,0.05 -6.72,-0.0222 z M 368.69248,332.7334 v -45.14258 h 11.45368 11.45368 l 17.90632,23.57418 17.90632,23.57419 0.16,-20.29419 0.16,-20.29418 0.7598,-1.54325 c 0.41789,-0.84879 1.25605,-2.0252 1.86258,-2.61425 0.60653,-0.58905 1.63262,-1.33459 2.2802,-1.65675 1.04193,-0.51835 2.2177,-0.59657 10.21742,-0.6798 l 9.04,-0.094 v 45.13405 45.13405 h -10.70423 -10.70422 l -18.65578,-24.54842 -18.65577,-24.54842 -0.16,21.10842 c -0.15624,20.61304 -0.17581,21.14259 -0.83381,22.56467 -0.3706,0.80095 -1.13292,1.97916 -1.69406,2.61827 -0.56114,0.6391 -1.69793,1.49578 -2.52619,1.90374 -1.447,0.71271 -1.85348,0.74575 -10.38594,0.84431 l -8.88,0.10258 z m 97.79688,44.57287 c -1.09635,-0.33664 -2.06793,-0.98477 -3.25356,-2.17039 -1.25876,-1.25877 -1.81974,-2.1259 -2.19687,-3.39583 -0.45048,-1.51694 -0.50645,-6.26051 -0.50645,-42.92731 v -41.22192 l 8.72,0.002 c 5.01946,10e-4 9.22582,0.14227 9.91192,0.33281 0.65556,0.18207 1.79283,0.79326 2.52727,1.35822 0.73445,0.56495 1.78209,1.81919 2.32809,2.78719 l 0.99273,1.76 0.0858,42 0.0858,42 -8.56577,-0.0223 c -6.6554,-0.0173 -8.91439,-0.12934 -10.1289,-0.50226 z m 98.18954,-0.67545 c 0.11818,-0.308 7.99647,-19.424 17.5073,-42.48 9.51084,-23.056 17.58681,-42.61221 17.94661,-43.45823 l 0.65418,-1.53824 8.83275,0.0982 c 8.81667,0.0981 8.83608,0.0998 10.66253,0.95585 1.00638,0.47169 2.56651,1.54673 3.46695,2.38899 0.90043,0.84225 1.97579,2.11232 2.38967,2.82238 0.41388,0.71005 8.12484,19.14701 17.13547,40.97101 9.01062,21.824 16.4531,39.93366 16.53884,40.2437 0.14723,0.53244 -0.54906,0.55906 -12.55121,0.48 l -12.70708,-0.0837 -3.09121,-7.68 -3.09121,-7.68 h -16.43573 -16.43574 l -0.87906,2.24 c -0.48348,1.232 -1.8502,4.724 -3.03714,7.76 l -2.15808,5.52 h -12.48136 c -11.75554,0 -12.46887,-0.0326 -12.26648,-0.56 z m 56.65874,-34.56 c -0.12282,-0.308 -2.15574,-5.6 -4.5176,-11.76 -2.36185,-6.16 -4.37445,-11.416 -4.47243,-11.68 -0.15836,-0.42667 -0.20797,-0.42667 -0.44649,0 -0.14759,0.264 -2.2979,5.71503 -4.77848,12.1134 -2.48058,6.39837 -4.51015,11.69037 -4.51015,11.76 0,0.0696 4.26341,0.1266 9.47424,0.1266 8.89482,0 9.46058,-0.0342 9.25091,-0.56 z m 121.43486,-8.56 v -43.68 l 23.12,0.002 c 18.92127,0.002 23.70114,0.0891 26.32,0.48242 1.76,0.26429 3.992,0.70345 4.96,0.97591 0.968,0.27246 2.69893,0.84733 3.84651,1.27747 1.14758,0.43015 3.16358,1.41278 4.48,2.18361 1.31642,0.77084 3.43382,2.36497 4.70533,3.54252 1.27151,1.17754 3.02178,3.20244 3.88948,4.49977 0.86771,1.29733 2.02195,3.51089 2.56499,4.91902 0.54303,1.40814 1.22082,3.90061 1.5062,5.53882 0.39102,2.24462 0.47744,4.16133 0.35072,7.77857 -0.10377,2.96228 -0.37642,5.59634 -0.71215,6.88 -0.29921,1.144 -1.08908,3.25695 -1.75528,4.69545 -0.66621,1.43851 -1.68883,3.31051 -2.27251,4.16 -0.58367,0.8495 -1.64219,2.18046 -2.35226,2.95768 -0.71006,0.77722 -2.37579,2.21722 -3.7016,3.2 -1.32582,0.98278 -3.30548,2.21887 -4.39927,2.74687 -1.09378,0.528 -1.98896,1.032 -1.98929,1.12 -3.3e-4,0.088 4.313,6.63072 9.58519,14.53937 l 9.58579,14.37937 0.59798,-1.41937 c 0.3289,-0.78066 8.36323,-20.25428 17.85408,-43.27472 l 17.25609,-41.85535 8.96,0.0953 8.96001,0.0953 1.76,0.92181 c 0.968,0.50699 2.27975,1.33106 2.915,1.83125 0.63526,0.5002 1.67089,1.66939 2.3014,2.59819 0.72168,1.06312 7.20995,16.3889 17.51374,41.36875 9.00204,21.824 16.49485,40.004 16.65069,40.4 l 0.28333,0.72 h -12.73201 -12.732 l -3.13095,-7.84 -3.13095,-7.84 h -16.39965 -16.39966 l -3.03284,7.76 -3.03284,7.76 H 821.46914 797.9725 l -2.11948,-1.00423 c -1.16571,-0.55232 -2.71089,-1.53853 -3.43373,-2.19157 -0.78135,-0.70591 -4.05908,-5.42388 -8.08374,-11.63577 -3.72322,-5.74664 -6.99155,-10.70396 -7.26296,-11.01627 -0.43969,-0.50596 -1.03653,-0.55827 -5.47678,-0.48 l -4.98331,0.0878 -0.0836,13.2 -0.0835,13.2 H 754.60895 742.7725 Z m 134.01316,8.72 c -0.0744,-0.22 -2.14183,-5.68918 -4.59424,-12.15372 -2.4524,-6.46455 -4.53091,-11.75627 -4.61891,-11.75938 -0.088,-0.003 -2.09428,4.99806 -4.45839,11.11372 -2.3641,6.11566 -4.49004,11.58738 -4.72429,12.15938 l -0.42591,1.04 h 9.47853 c 7.44166,0 9.44945,-0.086 9.34321,-0.4 z m -90.76709,-10.94175 c 1.16935,-0.24784 2.71334,-0.75023 3.43111,-1.11641 0.71776,-0.36617 1.80726,-1.10674 2.4211,-1.64569 0.61384,-0.53896 1.51784,-1.79808 2.00889,-2.79804 0.76898,-1.56592 0.89125,-2.19541 0.88141,-4.53811 -0.009,-2.12375 -0.17022,-3.07074 -0.73579,-4.32 -0.39841,-0.88 -1.23911,-2.12834 -1.86822,-2.77409 -0.62912,-0.64575 -1.95807,-1.53949 -2.95321,-1.98608 -0.99515,-0.4466 -2.81331,-0.96627 -4.04036,-1.15482 -1.28351,-0.19723 -5.6965,-0.30507 -10.391,-0.25392 l -8.16,0.0889 -0.0847,10.07706 c -0.0466,5.54238 -0.0151,10.25838 0.07,10.47999 0.11905,0.31024 2.1263,0.40167 8.72467,0.39739 6.13092,-0.004 9.17514,-0.13381 10.69611,-0.45619 z m 130.83394,2.22175 v -43.68 h 19.34361 c 15.35221,0 20.09904,0.099 23.00467,0.47992 2.01359,0.26396 5.03034,0.83569 6.70389,1.27052 1.67355,0.43482 4.01349,1.15595 5.19985,1.60249 1.18637,0.44655 3.30551,1.38674 4.7092,2.08931 1.40369,0.70257 3.57966,1.95177 4.83547,2.77601 1.25582,0.82424 3.74157,2.94832 5.52389,4.72018 1.93051,1.91918 3.97356,4.34949 5.05366,6.01159 0.99719,1.53451 2.29873,3.8557 2.8923,5.15821 0.59357,1.3025 1.43627,3.50299 1.87268,4.88998 0.43641,1.38698 1.02029,3.88979 1.29753,5.56179 0.27723,1.672 0.59524,4.48 0.70669,6.24 0.11144,1.76 0.0507,4.79265 -0.13507,6.73922 -0.18573,1.94657 -0.56693,4.64907 -0.84712,6.00556 -0.28019,1.35649 -0.87961,3.57984 -1.33203,4.94078 -0.45242,1.36094 -1.5487,3.89647 -2.43617,5.63452 -0.88747,1.73805 -2.43213,4.25805 -3.43258,5.6 -1.00045,1.34195 -3.02984,3.59558 -4.50974,5.00806 -1.4799,1.41248 -3.93332,3.39418 -5.45204,4.40377 -1.51872,1.00959 -4.11294,2.46723 -5.76493,3.23921 -1.65199,0.77198 -4.4414,1.84349 -6.19869,2.38113 -1.75729,0.53764 -4.27507,1.19123 -5.59507,1.45243 -1.32,0.26119 -3.79832,0.62799 -5.50739,0.81511 -1.82981,0.20033 -10.6776,0.34021 -21.52,0.34021 h -18.41261 z m 40.8,21.32777 c 1.408,-0.37622 3.74805,-1.26787 5.20011,-1.98146 1.89235,-0.92995 3.25314,-1.90478 4.80459,-3.44187 1.38442,-1.3716 2.59852,-2.97473 3.36885,-4.44829 0.6624,-1.26711 1.50728,-3.42711 1.87749,-4.8 0.52164,-1.93439 0.67313,-3.43236 0.67313,-6.65615 0,-3.2238 -0.15149,-4.72176 -0.67313,-6.65616 -0.37021,-1.37288 -1.21715,-3.53209 -1.88208,-4.79823 -0.69456,-1.32258 -2.02589,-3.12819 -3.12896,-4.24365 -1.056,-1.06786 -2.78538,-2.46205 -3.84307,-3.0982 -1.05769,-0.63615 -3.00169,-1.5185 -4.32,-1.96077 -1.31831,-0.44228 -3.33293,-0.9558 -4.47693,-1.14115 -1.144,-0.18535 -4.924,-0.33809 -8.4,-0.33942 l -6.32,-0.002 v 22.27423 22.27423 l 7.28,-0.14833 c 6.10347,-0.12435 7.69372,-0.25887 9.84,-0.83236 z m -799.20004,-7.76062 c -2.2,-0.1435 -6.16,-0.48759 -8.8,-0.76464 -2.64,-0.27706 -7.76025,-0.92751 -11.37833,-1.44546 -3.61807,-0.51794 -9.81007,-1.53174 -13.76,-2.25289 -3.94992,-0.72114 -10.20567,-1.95665 -13.90167,-2.74557 -3.696,-0.78892 -11.040009,-2.49859 -16.320005,-3.79928 -5.280001,-1.30068 -13.416001,-3.4561 -18.080001,-4.78982 -4.664,-1.33372 -11.648001,-3.48734 -15.520001,-4.78583 -3.872,-1.29849 -8.53986,-2.95937 -10.373023,-3.69084 -1.833162,-0.73147 -4.458132,-1.84425 -5.833266,-2.47284 -1.375134,-0.62859 -2.430165,-1.25628 -2.344514,-1.39486 0.08565,-0.13859 1.702621,-1.11139 3.593266,-2.16179 1.890645,-1.0504 5.314709,-2.84794 7.609031,-3.99453 2.294322,-1.1466 5.822322,-2.83223 7.84,-3.74585 2.017679,-0.91362 5.756506,-2.52716 8.308506,-3.58564 2.552001,-1.05848 7.302562,-2.93171 10.556804,-4.16272 3.254242,-1.23102 8.156539,-2.99885 10.893993,-3.92851 l 4.977189,-1.6903 4.466011,3.83275 c 2.4563,2.10801 7.20201,6.02971 10.54601,8.71487 3.344,2.68517 8.888,6.97021 12.32,9.52232 3.432,2.55211 8.40466,6.15744 11.05037,8.01184 2.6457,1.85441 7.03771,4.80064 9.76,6.54719 2.7223,1.74654 6.53363,4.12056 8.46963,5.27558 1.936,1.15503 5.15257,2.98588 7.14793,4.06857 1.99536,1.08269 5.16336,2.65821 7.04,3.50116 1.87664,0.84295 3.77207,1.69328 4.21207,1.88963 0.63164,0.28186 -0.17647,0.35188 -3.84,0.33268 -2.552,-0.0134 -6.44,-0.14171 -8.64,-0.28522 z m 19.2685,-2.53324 c -1.28232,-0.33596 -3.65832,-1.13486 -5.28,-1.77531 -1.62168,-0.64046 -5.3965,-2.42207 -8.3885,-3.95913 -2.992,-1.53707 -7.312,-3.91302 -9.6,-5.27991 -2.288,-1.36689 -7.472,-4.68824 -11.52,-7.38078 -4.048,-2.69255 -10.02395,-6.85266 -13.27989,-9.2447 -3.25594,-2.39204 -8.27177,-6.17327 -11.1463,-8.40273 -2.87452,-2.22947 -7.90919,-6.29857 -11.18815,-9.04246 -3.27896,-2.74389 -5.9411,-5.12953 -5.91586,-5.30142 0.0252,-0.17189 1.60386,-0.79298 3.50804,-1.38019 1.90419,-0.58722 6.63016,-1.9792 10.50216,-3.09329 3.872,-1.1141 10.496,-2.8981 14.72,-3.96445 4.224,-1.06636 10.272,-2.51156 13.44,-3.21157 3.168,-0.7 8.39169,-1.78913 11.6082,-2.42029 3.21652,-0.63116 8.47252,-1.56796 11.68,-2.0818 3.20749,-0.51383 6.24911,-0.97961 6.75916,-1.03506 0.89608,-0.0974 0.96364,-0.004 2.00285,2.77918 0.59152,1.584 2.16688,6.12 3.50079,10.08 1.33392,3.96 3.34513,10.40889 4.46936,14.33088 1.12424,3.92198 2.55763,9.51888 3.18531,12.43755 0.62769,2.91867 1.3572,6.69378 1.62114,8.38912 0.26393,1.69535 0.56545,4.95445 0.67004,7.24245 0.12231,2.67576 0.0511,4.98238 -0.19972,6.46495 -0.26153,1.54617 -0.7044,2.7798 -1.34529,3.74737 -0.52548,0.79333 -1.43061,1.7361 -2.0114,2.09504 -0.80555,0.49786 -1.57826,0.64846 -3.25821,0.63502 -1.21123,-0.01 -3.2514,-0.2925 -4.53373,-0.62847 z m 15.19719,-19.68848 c -0.10989,-1.05138 -0.63628,-4.05723 -1.16975,-6.67965 -0.53347,-2.62242 -1.55935,-7.01303 -2.27974,-9.75691 -0.72038,-2.74388 -2.23084,-7.96972 -3.35657,-11.61298 -1.12573,-3.64326 -3.14475,-9.73618 -4.4867,-13.53983 -1.34196,-3.80366 -2.38885,-6.96312 -2.32643,-7.02103 0.0624,-0.0579 2.4895,-0.33281 5.3935,-0.61089 2.904,-0.27807 7.33795,-0.6035 9.85322,-0.72318 l 4.57323,-0.2176 -0.19224,3.48832 c -0.10573,1.91858 -0.40315,6.72832 -0.66094,10.68832 -0.2578,3.96 -0.68211,9.288 -0.94292,11.84 -0.26081,2.552 -0.84161,7.304 -1.29066,10.56 -0.44905,3.256 -1.17198,7.792 -1.6065,10.08 -0.43452,2.288 -0.90651,4.44283 -1.04886,4.78852 -0.19008,0.46158 -0.3119,0.12077 -0.45864,-1.28309 z M 38.346918,315.53861 c -0.117951,-0.11795 -0.214456,-0.90104 -0.214456,-1.7402 0,-0.83917 0.207488,-2.51211 0.461084,-3.71767 0.253596,-1.20555 0.919336,-3.45836 1.479422,-5.00623 0.560087,-1.54787 2.068689,-4.92693 3.35245,-7.509 1.283761,-2.58208 3.540094,-6.71069 5.014074,-9.17469 1.47398,-2.464 4.326551,-6.928 6.339047,-9.92 2.012496,-2.992 5.594583,-8.032 7.960194,-11.2 2.36561,-3.168 5.987892,-7.848 8.049515,-10.4 2.061624,-2.552 5.601464,-6.79671 7.866311,-9.43269 2.264848,-2.63599 5.772457,-6.59599 7.794688,-8.8 2.022231,-2.20402 5.766231,-6.14655 8.32,-8.76118 2.55377,-2.61462 6.745063,-6.68358 9.313973,-9.04212 2.56892,-2.35854 6.52892,-5.80916 8.8,-7.66805 2.27109,-1.85888 5.78525,-4.50321 7.80925,-5.8763 2.024,-1.37308 4.98983,-3.15354 6.59075,-3.95656 1.60091,-0.80303 3.7817,-1.68574 4.84619,-1.96158 1.06449,-0.27583 2.46151,-0.50152 3.10449,-0.50152 0.96809,0 1.43049,0.26145 2.69001,1.52096 0.83652,0.83653 2.61132,3.17653 3.94399,5.2 1.33266,2.02347 3.35239,5.33504 4.48828,7.35904 1.13588,2.024 2.59403,4.6566 3.24033,5.85021 1.05132,1.94166 1.11615,2.19169 0.61552,2.37416 -0.30776,0.11217 -2.79156,1.12744 -5.51956,2.25617 -2.728,1.12872 -7.48,3.20989 -10.56,4.62482 -3.08,1.41494 -7.184,3.36605 -9.12,4.33582 -1.936,0.96977 -5.536,2.84709 -8,4.17181 -2.464,1.32473 -6.784,3.77663 -9.6,5.44867 -2.816,1.67204 -7.28001,4.49032 -9.920005,6.26283 -2.64,1.77251 -6.528,4.61058 -8.640001,6.30683 -2.112,1.69625 -4.927401,4.22361 -6.256446,5.61635 -1.329046,1.39275 -2.906339,3.24431 -3.505095,4.11457 -0.598757,0.87026 -1.415938,2.37777 -1.815958,3.35003 -0.400021,0.97225 -0.727566,2.34373 -0.727878,3.04773 -3.12e-4,0.704 0.262287,1.856 0.583553,2.56 0.321267,0.704 1.502599,2.504 2.625184,4 1.122584,1.496 4.323181,5.00139 7.112436,7.78975 2.789255,2.78836 5.02476,5.1074 4.967789,5.15341 -0.05697,0.046 -2.839585,1.05477 -6.183585,2.24168 -3.344,1.1869 -9.104,3.35605 -12.8,4.82032 -3.696001,1.46428 -8.880001,3.62164 -11.520001,4.79414 -2.64,1.17251 -6.96,3.19291 -9.6,4.48978 -2.640001,1.29688 -6.331088,3.21497 -8.202416,4.26244 -1.871329,1.04746 -3.754824,2.13538 -4.185545,2.4176 -0.430721,0.28222 -0.879634,0.41662 -0.997584,0.29867 z m 52.005667,-31.38779 c -3.7261,-3.72462 -6.958598,-7.26289 -7.871429,-8.61604 -1.349168,-1.99994 -1.522161,-2.43861 -1.341484,-3.4017 0.114084,-0.60812 0.792074,-2.01024 1.506644,-3.11582 0.714571,-1.10558 2.475279,-3.15637 3.912684,-4.55731 1.437405,-1.40094 4.485465,-3.95285 6.773465,-5.6709 2.288,-1.71805 6.031996,-4.3422 8.319995,-5.83145 2.28801,-1.48925 5.88801,-3.72052 8.00001,-4.95837 2.112,-1.23785 5.856,-3.35448 8.32,-4.70361 2.464,-1.34913 7.504,-3.94271 11.2,-5.76351 3.696,-1.82081 9.168,-4.39285 12.16,-5.71565 2.992,-1.3228 6.77834,-2.94037 8.4141,-3.5946 1.63576,-0.65422 3.02336,-1.13584 3.08355,-1.07027 0.0602,0.0656 0.97234,1.84723 2.02699,3.95923 1.05464,2.112 3.17756,6.576 4.7176,9.92 1.54003,3.344 3.94731,8.744 5.3495,12 1.40218,3.256 3.76202,8.92965 5.24407,12.60811 1.48205,3.67845 2.65629,6.7203 2.60942,6.75966 -0.0469,0.0394 -2.53323,0.45855 -5.52523,0.93154 -2.992,0.47299 -10.048,1.78344 -15.68,2.91212 -5.632,1.12867 -14.56,3.12488 -19.84,4.43601 -5.28,1.31113 -13.344,3.46355 -17.92,4.78316 -4.576,1.3196 -10.16297,2.98656 -12.41549,3.70434 -2.252519,0.71778 -4.236427,1.30506 -4.408682,1.30506 -0.172256,0 -3.158326,-2.844 -6.635713,-6.32 z m 86.029385,-15.0361 c -0.58491,-1.54214 -2.24897,-5.6839 -3.69792,-9.2039 -1.44896,-3.52 -3.88784,-9.26675 -5.41975,-12.77056 -1.53191,-3.50381 -4.42927,-9.83122 -6.43856,-14.06091 -2.0093,-4.22969 -3.65327,-7.72849 -3.65327,-7.7751 0,-0.0466 2.7,-0.96614 6,-2.0434 3.3,-1.07726 8.16,-2.52073 10.8,-3.20771 2.64,-0.68698 6.50631,-1.54004 8.5918,-1.89569 2.229,-0.38012 5.13055,-0.63659 7.04,-0.62228 1.78651,0.0134 3.7522,0.20054 4.3682,0.4159 0.84486,0.29537 1.30508,0.76078 1.87339,1.89449 0.41751,0.83289 1.01971,3.06388 1.35077,5.00423 0.32856,1.92572 0.82039,6.04723 1.09295,9.15892 0.27255,3.11169 0.64422,10.42863 0.82592,16.25987 0.18171,5.83123 0.23347,12.70437 0.11504,15.27363 l -0.21533,4.67139 -5.00137,0.19807 c -2.75075,0.10894 -7.16137,0.41758 -9.80137,0.68587 -2.64,0.26829 -5.24258,0.56279 -5.78352,0.65445 -0.97648,0.16545 -0.99113,0.14657 -2.04698,-2.63727 z"
       id="path1" />
  </g>
</svg>
